# xmcd
# 
# Track frame offsets:
#   150
#   17228
#   34655
#   54711
#   68798
#   86978
#   103155
#   116406
#   134077
#   149869
#   165338
#   179819
#   196516
#   212098
#   230551
#   245364
#   262011
#   276208
# 
# Disc length: 3865 seconds
# 
# Revision: 4
# Processed by: cddbd v1.5.2PL0 Copyright (c) Steve Scherf et al.
# Submitted via: Synapstar 1.0 
# 
DISCID=190f1712
DTITLE=Various Artist - Promo Only Country Radio August 2000
DYEAR=2000
DGENRE=Country
TTITLE0=George Strait - Go On
TTITLE1=Kenny Chesney - I Lost It
TTITLE2=Clay Walker - Once In A Lifetime Love
TTITLE3=Terri Clark - A Little Gasoline
TTITLE4=Travis Tritt - Best Of Intentions
TTITLE5=Andy Griggs - Waitin' On Sundown
TTITLE6=Randy Travis - I'll Be Right Here Loving You
TTITLE7=John Rich - I Pray For You
TTITLE8=Daryle Singletary - I Knew I Loved You
TTITLE9=Georgia Middleman - No Place Like Home
TTITLE10=Craig Morgan - Paradise (No Cadence Version)
TTITLE11=Shane Mcanally - Run Away
TTITLE12=Sons Of The Desert - Everybody's Gotta Grow Up Sometime
TTITLE13=Lisa Angelle - A Woman Gets Lonely
TTITLE14=Ricky Van Shelton - Call Me Crazy
TTITLE15=B.j. Thomas - What's Forever For
TTITLE16=Loretta Lynn - Country In My Genes
TTITLE17=Kacey Jones With Delbert McClinton - You're The Reason Our Kids Are Ugly
EXTD=MediaType: Audio CD Producer: Unknown
EXTT0=
EXTT1=
EXTT2=
EXTT3=
EXTT4=
EXTT5=
EXTT6=
EXTT7=
EXTT8=
EXTT9=
EXTT10=
EXTT11=
EXTT12=
EXTT13=
EXTT14=
EXTT15=
EXTT16=
EXTT17=
PLAYORDER=
